<svg xmlns="http://www.w3.org/2000/svg" width="22.629" height="22.629" viewBox="0 0 22.629 22.629">
  <path id="Icon_awesome-bus" data-name="Icon awesome-bus" d="M21.569,5.657h-.354V3.536c0-1.98-4.384-3.536-9.9-3.536s-9.9,1.556-9.9,3.536V5.657H1.061A1.061,1.061,0,0,0,0,6.718v3.536a1.061,1.061,0,0,0,1.061,1.061h.354v7.072A1.415,1.415,0,0,0,2.829,19.8v1.414a1.415,1.415,0,0,0,1.414,1.414H5.657a1.415,1.415,0,0,0,1.414-1.414V19.8h8.486v1.414a1.415,1.415,0,0,0,1.414,1.414h1.414A1.415,1.415,0,0,0,19.8,21.215V19.8h.283a1.116,1.116,0,0,0,1.131-1.131V11.315h.354a1.061,1.061,0,0,0,1.061-1.061V6.718A1.061,1.061,0,0,0,21.569,5.657ZM4.95,17.679a1.414,1.414,0,1,1,1.414-1.414A1.415,1.415,0,0,1,4.95,17.679Zm.707-4.95a1.415,1.415,0,0,1-1.414-1.414V5.657A1.415,1.415,0,0,1,5.657,4.243H16.972a1.415,1.415,0,0,1,1.414,1.414v5.657a1.415,1.415,0,0,1-1.414,1.414Zm12.022,4.95a1.414,1.414,0,1,1,1.414-1.414A1.415,1.415,0,0,1,17.679,17.679Z" fill="#e65d38"/>
</svg>
