<svg xmlns="http://www.w3.org/2000/svg" width="31" height="31" viewBox="0 0 31 31">
  <path id="Icon_awesome-facebook-square" data-name="Icon awesome-facebook-square" d="M27.679,2.5H3.321A3.321,3.321,0,0,0,0,5.821V30.179A3.321,3.321,0,0,0,3.321,33.5h9.5V22.961H8.459V18h4.359V14.219c0-4.3,2.56-6.676,6.482-6.676a26.41,26.41,0,0,1,3.842.335V12.1H20.978a2.481,2.481,0,0,0-2.8,2.68V18h4.759l-.761,4.961h-4V33.5h9.5A3.321,3.321,0,0,0,31,30.179V5.821A3.321,3.321,0,0,0,27.679,2.5Z" transform="translate(0 -2.5)" fill="#1a1b1d"/>
</svg>
