<svg xmlns="http://www.w3.org/2000/svg" width="31" height="31" viewBox="0 0 31 31">
  <path id="Icon_awesome-instagram" data-name="Icon awesome-instagram" d="M15.5,10.038a7.948,7.948,0,1,0,7.946,7.948A7.935,7.935,0,0,0,15.5,10.038Zm0,13.115a5.167,5.167,0,1,1,5.166-5.167A5.176,5.176,0,0,1,15.5,23.154ZM25.622,9.713a1.853,1.853,0,1,1-1.853-1.854A1.849,1.849,0,0,1,25.622,9.713Zm5.263,1.882a9.175,9.175,0,0,0-2.5-6.5,9.231,9.231,0,0,0-6.494-2.5C19.329,2.45,11.659,2.45,9.1,2.6a9.218,9.218,0,0,0-6.494,2.5,9.205,9.205,0,0,0-2.5,6.5c-.145,2.559-.145,10.231,0,12.79a9.175,9.175,0,0,0,2.5,6.5,9.243,9.243,0,0,0,6.494,2.5c2.559.145,10.228.145,12.787,0a9.171,9.171,0,0,0,6.494-2.5,9.236,9.236,0,0,0,2.5-6.5C31.03,21.819,31.03,14.154,30.885,11.595ZM27.579,27.124a5.231,5.231,0,0,1-2.946,2.947c-2.04.809-6.881.623-9.136.623s-7.1.18-9.136-.623a5.231,5.231,0,0,1-2.946-2.947c-.809-2.041-.622-6.883-.622-9.138s-.18-7.1.622-9.138A5.231,5.231,0,0,1,6.362,5.9c2.04-.809,6.881-.623,9.136-.623s7.1-.18,9.136.623a5.231,5.231,0,0,1,2.946,2.947c.809,2.041.622,6.883.622,9.138S28.389,25.09,27.579,27.124Z" transform="translate(0.006 -2.486)" fill="#1a1b1d"/>
</svg>
