<svg xmlns="http://www.w3.org/2000/svg" width="20.701" height="23.658" viewBox="0 0 20.701 23.658">
  <path id="Icon_awesome-train" data-name="Icon awesome-train" d="M20.7,4.436V16.265c0,2.394-2.847,4.436-6.008,4.436L17.6,23a.37.37,0,0,1-.229.66H3.327A.37.37,0,0,1,3.1,23l2.91-2.3C2.857,20.7,0,18.665,0,16.265V4.436C0,1.986,2.957,0,5.914,0h8.872C17.79,0,20.7,1.986,20.7,4.436ZM18.483,10.72V5.545a1.109,1.109,0,0,0-1.109-1.109H3.327A1.109,1.109,0,0,0,2.218,5.545V10.72a1.109,1.109,0,0,0,1.109,1.109H17.374A1.109,1.109,0,0,0,18.483,10.72ZM10.35,13.677a2.588,2.588,0,1,0,2.588,2.588A2.588,2.588,0,0,0,10.35,13.677Z" fill="#e65d38"/>
</svg>
