<svg xmlns="http://www.w3.org/2000/svg" xmlns:xlink="http://www.w3.org/1999/xlink" width="45" height="45" viewBox="0 0 45 45">
  <defs>
    <clipPath id="clip-path">
      <rect id="Rectangle_751" data-name="Rectangle 751" width="45" height="45" transform="translate(180 590)" fill="#fd5a3f"/>
    </clipPath>
  </defs>
  <g id="Mask_Group_4" data-name="Mask Group 4" transform="translate(-180 -590)" clip-path="url(#clip-path)">
    <g id="_004-bitcoin" data-name="004-bitcoin" transform="translate(180 590)">
      <g id="Group_401" data-name="Group 401">
        <path id="Path_223" data-name="Path 223" d="M22.5,3.794a.879.879,0,0,0-.879.879V6.337a.879.879,0,0,0,1.758,0V4.672a.879.879,0,0,0-.879-.879Z" fill="#878787"/>
        <path id="Path_224" data-name="Path 224" d="M22.5,38.172a.879.879,0,0,0-.879.879v1.665a.879.879,0,0,0,1.758,0V39.051A.879.879,0,0,0,22.5,38.172Z" fill="#878787"/>
        <path id="Path_225" data-name="Path 225" d="M40.522,21.815H38.857a.879.879,0,0,0,0,1.758h1.665a.879.879,0,0,0,0-1.758Z" fill="#878787"/>
        <path id="Path_226" data-name="Path 226" d="M6.143,21.815H4.478a.879.879,0,0,0,0,1.758H6.143a.879.879,0,0,0,0-1.758Z" fill="#878787"/>
        <path id="Path_227" data-name="Path 227" d="M34.622,9.329l-1.177,1.177a.879.879,0,1,0,1.243,1.243l1.177-1.177a.879.879,0,1,0-1.243-1.243Z" fill="#878787"/>
        <path id="Path_228" data-name="Path 228" d="M10.313,33.638,9.135,34.816a.879.879,0,1,0,1.243,1.243l1.177-1.177a.879.879,0,1,0-1.243-1.243Z" fill="#878787"/>
        <path id="Path_229" data-name="Path 229" d="M34.687,33.638a.879.879,0,1,0-1.243,1.243l1.177,1.177a.879.879,0,1,0,1.243-1.243Z" fill="#878787"/>
        <path id="Path_230" data-name="Path 230" d="M10.378,9.329a.879.879,0,0,0-1.243,1.243l1.177,1.177a.879.879,0,0,0,1.243-1.243Z" fill="#878787"/>
        <path id="Path_231" data-name="Path 231" d="M38.41,6.59A22.5,22.5,0,0,0,6.59,38.41,22.5,22.5,0,0,0,38.41,6.59ZM22.5,43.242A20.742,20.742,0,1,1,43.242,22.5,20.766,20.766,0,0,1,22.5,43.242Z" fill="#878787"/>
      </g>
      <g id="Group_403" data-name="Group 403">
        <g id="Group_402" data-name="Group 402">
          <circle id="Ellipse_12" data-name="Ellipse 12" cx="12.946" cy="12.946" r="12.946" transform="translate(9.554 9.554)" fill="#fd5a3f"/>
        </g>
        <path id="Path_232" data-name="Path 232" d="M28.132,25.538a4.444,4.444,0,0,0-2.281-3.882,3.93,3.93,0,0,0-1.723-6.5v-.892a.879.879,0,0,0-1.758,0v.737H20.09v-.737a.879.879,0,1,0-1.758,0v.737h-.585a.879.879,0,0,0,0,1.758h.585V28.282h-.585a.879.879,0,0,0,0,1.758h.585v.692a.879.879,0,0,0,1.758,0V30.04a.877.877,0,0,0,.292-.05l1.988-.008v.75a.879.879,0,0,0,1.758,0v-.773a4.441,4.441,0,0,0,4-4.42Zm-2.941-6.609A2.164,2.164,0,0,1,23.038,21.1H20.09V16.764h2.948A2.162,2.162,0,0,1,25.191,18.929Zm-1.484,9.292c-.658,0-2.5.007-3.616.012V22.858h3.616a2.682,2.682,0,0,1,0,5.363Z" fill="#fff"/>
      </g>
    </g>
  </g>
</svg>
