<svg xmlns="http://www.w3.org/2000/svg" xmlns:xlink="http://www.w3.org/1999/xlink" width="45" height="45" viewBox="0 0 45 45">
  <defs>
    <clipPath id="clip-path">
      <rect id="Rectangle_750" data-name="Rectangle 750" width="45" height="45" transform="translate(180 492)" fill="#fd5a3f"/>
    </clipPath>
  </defs>
  <g id="Mask_Group_2" data-name="Mask Group 2" transform="translate(-180 -492)" clip-path="url(#clip-path)">
    <g id="_003-tickets" data-name="003-tickets" transform="translate(180 492)">
      <g id="Group_392" data-name="Group 392">
        <g id="Group_391" data-name="Group 391">
          <path id="Path_206" data-name="Path 206" d="M44.957,19.679,39.771,3.72a.879.879,0,0,0-1.108-.564L.607,15.522A.879.879,0,0,0,.043,16.63L2.5,24.184c0,.015,0,.029,0,.044v16.78a.879.879,0,0,0,.879.879H43.389a.879.879,0,0,0,.879-.879V24.228a.879.879,0,0,0-.879-.879H36.506l7.887-2.563A.879.879,0,0,0,44.957,19.679ZM42.51,25.107V40.13H4.254V25.107H9.122V34.9a.879.879,0,1,0,1.758,0V25.107H42.51ZM30.818,23.349H4.075L1.987,16.923l4.633-1.505L8.391,20.8a.879.879,0,1,0,1.67-.549l-1.77-5.379L38.371,5.1l4.643,14.287Z" fill="#878787"/>
          <path id="Path_207" data-name="Path 207" d="M37.037,8.951a.879.879,0,0,0-1.108-.564L13.014,15.834a.879.879,0,1,0,.543,1.672l22.915-7.447A.879.879,0,0,0,37.037,8.951Z" fill="#fd5a3f"/>
          <path id="Path_208" data-name="Path 208" d="M33.173,14.66l4.338-1.409a.879.879,0,1,0-.543-1.672l-4.338,1.409a.879.879,0,1,0,.543,1.672Z" fill="#878787"/>
          <path id="Path_209" data-name="Path 209" d="M36.838,18.7a.878.878,0,0,0,1.108.564l1.373-.446a.879.879,0,1,0-.543-1.672L37.4,17.59A.879.879,0,0,0,36.838,18.7Z" fill="#fd5a3f"/>
          <path id="Path_210" data-name="Path 210" d="M34.337,18.586l-1.373.446a.879.879,0,1,0,.543,1.672l1.373-.446a.879.879,0,1,0-.543-1.672Z" fill="#fd5a3f"/>
          <path id="Path_211" data-name="Path 211" d="M22.072,16.419l-8.02,2.606a.879.879,0,1,0,.543,1.672l8.02-2.606a.879.879,0,0,0-.543-1.672Z" fill="#878787"/>
          <path id="Path_212" data-name="Path 212" d="M10,36.946a.879.879,0,0,0-.879.879v.344a.879.879,0,1,0,1.758,0v-.344A.879.879,0,0,0,10,36.946Z" fill="#fd5a3f"/>
          <path id="Path_213" data-name="Path 213" d="M14.2,28.359a.879.879,0,0,0,.879.879H39.173a.879.879,0,0,0,0-1.758H15.078A.879.879,0,0,0,14.2,28.359Z" fill="#fd5a3f"/>
          <path id="Path_214" data-name="Path 214" d="M39.173,30.836H34.612a.879.879,0,1,0,0,1.758h4.561a.879.879,0,0,0,0-1.758Z" fill="#878787"/>
          <path id="Path_215" data-name="Path 215" d="M39.173,36.688H37.729a.879.879,0,0,0,0,1.758h1.443a.879.879,0,0,0,0-1.758Z" fill="#fd5a3f"/>
          <path id="Path_216" data-name="Path 216" d="M34.506,36.688H33.063a.879.879,0,1,0,0,1.758h1.443a.879.879,0,0,0,0-1.758Z" fill="#fd5a3f"/>
          <path id="Path_217" data-name="Path 217" d="M23.511,30.836H15.078a.879.879,0,1,0,0,1.758h8.433a.879.879,0,0,0,0-1.758Z" fill="#878787"/>
        </g>
      </g>
    </g>
  </g>
</svg>
