<svg xmlns="http://www.w3.org/2000/svg" width="31" height="31" viewBox="0 0 31 31">
  <path id="Icon_awesome-line" data-name="Icon awesome-line" d="M18.828,14.416v4.92a.219.219,0,0,1-.221.221h-.789a.229.229,0,0,1-.18-.09l-2.256-3.045v2.92a.219.219,0,0,1-.221.221h-.789a.219.219,0,0,1-.221-.221v-4.92a.219.219,0,0,1,.221-.221h.782a.209.209,0,0,1,.18.1l2.256,3.045v-2.92a.219.219,0,0,1,.221-.221H18.6A.219.219,0,0,1,18.828,14.416Zm-5.674-.221h-.789a.219.219,0,0,0-.221.221v4.92a.219.219,0,0,0,.221.221h.789a.219.219,0,0,0,.221-.221v-4.92A.223.223,0,0,0,13.154,14.194Zm-1.9,4.124H9.1v-3.9a.219.219,0,0,0-.221-.221H8.089a.219.219,0,0,0-.221.221v4.92a.2.2,0,0,0,.062.152.233.233,0,0,0,.152.062h3.162a.219.219,0,0,0,.221-.221V18.54A.222.222,0,0,0,11.251,18.318ZM22.98,14.194H19.818a.223.223,0,0,0-.221.221v4.92a.223.223,0,0,0,.221.221H22.98a.219.219,0,0,0,.221-.221v-.789a.219.219,0,0,0-.221-.221H20.828v-.83H22.98a.219.219,0,0,0,.221-.221v-.8a.219.219,0,0,0-.221-.221H20.828v-.83H22.98A.219.219,0,0,0,23.2,15.2v-.789A.233.233,0,0,0,22.98,14.194ZM31,8.153V27.9a5.636,5.636,0,0,1-5.653,5.6H5.6A5.641,5.641,0,0,1,0,27.847V8.1A5.641,5.641,0,0,1,5.653,2.5H25.4A5.636,5.636,0,0,1,31,8.153Zm-4.262,8.483c0-5.051-5.065-9.162-11.286-9.162S4.166,11.585,4.166,16.637c0,4.525,4.013,8.317,9.438,9.037,1.322.284,1.169.768.872,2.546-.048.284-.228,1.114.976.609a36.473,36.473,0,0,0,8.871-6.553A8.175,8.175,0,0,0,26.737,16.637Z" transform="translate(0 -2.5)" fill="#1a1b1d"/>
</svg>
