<svg xmlns="http://www.w3.org/2000/svg" xmlns:xlink="http://www.w3.org/1999/xlink" width="45" height="45" viewBox="0 0 45 45">
  <defs>
    <clipPath id="clip-path">
      <rect id="Rectangle_758" data-name="Rectangle 758" width="45" height="45" transform="translate(180 396)" fill="#babcc4"/>
    </clipPath>
  </defs>
  <g id="Mask_Group_1" data-name="Mask Group 1" transform="translate(-180 -396)" clip-path="url(#clip-path)">
    <g id="_001-user" data-name="001-user" transform="translate(180 396)">
      <g id="Group_388" data-name="Group 388">
        <path id="Path_200" data-name="Path 200" d="M41.774,2.5H3.226A3.233,3.233,0,0,0,0,5.736V39.822A2.673,2.673,0,0,0,2.665,42.5H42.335A2.673,2.673,0,0,0,45,39.822V5.736A3.233,3.233,0,0,0,41.774,2.5ZM1.758,5.736A1.473,1.473,0,0,1,3.226,4.261H41.774a1.473,1.473,0,0,1,1.468,1.475V10.96H1.758ZM43.242,39.822a.913.913,0,0,1-.907.917H2.665a.913.913,0,0,1-.907-.917v-27.1H43.242Z" fill="#878787"/>
        <path id="Path_201" data-name="Path 201" d="M28.914,6.731H27.733a.879.879,0,1,0,0,1.758h1.181a.879.879,0,1,0,0-1.758Z" fill="#878787"/>
        <path id="Path_202" data-name="Path 202" d="M34.374,6.731H33.194a.879.879,0,0,0,0,1.758h1.181a.879.879,0,0,0,0-1.758Z" fill="#878787"/>
        <path id="Path_203" data-name="Path 203" d="M39.835,6.731H38.655a.879.879,0,0,0,0,1.758h1.181a.879.879,0,0,0,0-1.758Z" fill="#878787"/>
        <path id="Path_204" data-name="Path 204" d="M14.785,6.731H6.264a.879.879,0,0,0,0,1.758h8.521a.879.879,0,1,0,0-1.758Z" fill="#878787"/>
      </g>
      <g id="Group_390" data-name="Group 390">
        <g id="Group_389" data-name="Group 389">
          <circle id="Ellipse_7" data-name="Ellipse 7" cx="11.284" cy="11.284" r="11.284" transform="translate(11.216 15.525)" fill="#878787"/>
        </g>
        <path id="Path_205" data-name="Path 205" d="M26.015,26.737a4.528,4.528,0,1,0-7.03,0,3.962,3.962,0,0,0-2.074,3.472v3.012a.879.879,0,0,0,.879.879h9.421a.879.879,0,0,0,.879-.879V30.208a3.967,3.967,0,0,0-2.075-3.471ZM22.5,21.115a2.77,2.77,0,1,1-2.77,2.77,2.773,2.773,0,0,1,2.77-2.77Zm3.832,11.227H18.668V30.208a2.2,2.2,0,0,1,2-2.181,4.527,4.527,0,0,0,3.657,0,2.2,2.2,0,0,1,2,2.181v2.133Z" fill="#fd5a3f"/>
      </g>
    </g>
  </g>
</svg>
