<svg xmlns="http://www.w3.org/2000/svg" xmlns:xlink="http://www.w3.org/1999/xlink" width="45" height="45" viewBox="0 0 45 45">
  <defs>
    <clipPath id="clip-path">
      <rect id="Rectangle_753" data-name="Rectangle 753" width="45" height="45" transform="translate(180 782)" fill="#fd5a3f"/>
    </clipPath>
  </defs>
  <g id="Mask_Group_5" data-name="Mask Group 5" transform="translate(-180 -782)" clip-path="url(#clip-path)">
    <g id="_005-window" data-name="005-window" transform="translate(180 782)">
      <g id="Group_404" data-name="Group 404">
        <path id="Path_233" data-name="Path 233" d="M41.886,3.947H3.114A3.129,3.129,0,0,0,0,7.084V37.916a3.129,3.129,0,0,0,3.114,3.137H41.886A3.129,3.129,0,0,0,45,37.916V7.084a3.129,3.129,0,0,0-3.114-3.137ZM1.758,7.084A1.369,1.369,0,0,1,3.114,5.7H41.886a1.369,1.369,0,0,1,1.356,1.379v3.495H1.758ZM43.242,37.916a1.369,1.369,0,0,1-1.356,1.379H3.114a1.369,1.369,0,0,1-1.357-1.379V12.337H43.242Z" fill="#878787"/>
        <path id="Path_234" data-name="Path 234" d="M7.286,7.263H6.074a.879.879,0,0,0,0,1.758H7.286a.879.879,0,0,0,0-1.758Z" fill="#878787"/>
        <path id="Path_235" data-name="Path 235" d="M12.3,7.263H11.089a.879.879,0,0,0,0,1.758H12.3a.879.879,0,0,0,0-1.758Z" fill="#878787"/>
        <path id="Path_236" data-name="Path 236" d="M17.316,7.263H16.1a.879.879,0,0,0,0,1.758h1.212a.879.879,0,0,0,0-1.758Z" fill="#878787"/>
        <path id="Path_237" data-name="Path 237" d="M38.926,7.263h-4.3a.879.879,0,1,0,0,1.758h4.3a.879.879,0,1,0,0-1.758Z" fill="#878787"/>
      </g>
      <g id="Group_405" data-name="Group 405">
        <path id="Path_238" data-name="Path 238" d="M33.119,24.169l-1.3-.634a9.57,9.57,0,0,0-.964-2.321l.449-1.345a.644.644,0,0,0-.155-.658l-1.82-1.82a.644.644,0,0,0-.658-.155l-1.345.449A9.562,9.562,0,0,0,25,16.72l-.634-1.3a.643.643,0,0,0-.579-.362H21.213a.643.643,0,0,0-.579.362L20,16.72a9.566,9.566,0,0,0-2.321.964l-1.345-.449a.643.643,0,0,0-.658.155l-1.82,1.82a.644.644,0,0,0-.155.658l.449,1.345a9.57,9.57,0,0,0-.964,2.321l-1.3.634a.643.643,0,0,0-.362.579v2.574a.643.643,0,0,0,.362.579l1.3.634a9.57,9.57,0,0,0,.964,2.321L13.7,32.2a.644.644,0,0,0,.155.658l1.82,1.82a.644.644,0,0,0,.658.155l1.345-.449A9.57,9.57,0,0,0,20,35.349l.634,1.3a.643.643,0,0,0,.579.362h2.574a.643.643,0,0,0,.579-.362l.634-1.3a9.576,9.576,0,0,0,2.321-.964l1.345.449a.643.643,0,0,0,.658-.155l1.82-1.82A.644.644,0,0,0,31.3,32.2l-.449-1.345a9.57,9.57,0,0,0,.964-2.321l1.3-.634a.643.643,0,0,0,.362-.579V24.748a.644.644,0,0,0-.362-.579ZM22.5,31.255a5.22,5.22,0,1,1,5.22-5.22,5.22,5.22,0,0,1-5.22,5.22Z" fill="#fd5a3f"/>
      </g>
    </g>
  </g>
</svg>
