<svg xmlns="http://www.w3.org/2000/svg" width="31" height="31" viewBox="0 0 31 31">
  <path id="Icon_awesome-twitter-square" data-name="Icon awesome-twitter-square" d="M27.679,2.5H3.321A3.322,3.322,0,0,0,0,5.821V30.179A3.322,3.322,0,0,0,3.321,33.5H27.679A3.322,3.322,0,0,0,31,30.179V5.821A3.322,3.322,0,0,0,27.679,2.5ZM24.295,13.488c.014.194.014.394.014.588A12.824,12.824,0,0,1,11.4,26.989a12.853,12.853,0,0,1-6.968-2.034,9.561,9.561,0,0,0,1.093.055,9.1,9.1,0,0,0,5.633-1.937,4.544,4.544,0,0,1-4.242-3.148,4.891,4.891,0,0,0,2.048-.083,4.539,4.539,0,0,1-3.633-4.456v-.055a4.535,4.535,0,0,0,2.048.574,4.529,4.529,0,0,1-2.021-3.778,4.482,4.482,0,0,1,.616-2.29,12.886,12.886,0,0,0,9.355,4.747,4.548,4.548,0,0,1,7.743-4.145,8.893,8.893,0,0,0,2.879-1.093,4.526,4.526,0,0,1-1.993,2.5,9.031,9.031,0,0,0,2.616-.706A9.552,9.552,0,0,1,24.295,13.488Z" transform="translate(0 -2.5)" fill="#1a1b1d"/>
</svg>
